<svg width="470" height="424" viewBox="0 0 470 424" fill="none" xmlns="http://www.w3.org/2000/svg">
<g clip-path="url(#clip0_363_8777)">
<path d="M458.121 316.535C468.062 228.84 419.879 112.269 369.935 64.1395C279.76 -22.7507 204.837 -5.94862 146.562 25.1779C88.2995 56.3044 79.9691 160.21 39.7391 207.221C-0.490905 254.231 -23.3806 317.465 37.6628 380.423C98.7061 443.368 147.959 411.386 211.77 407.399C275.595 403.412 360.22 434.841 405.999 407.512C437.974 388.421 453.717 355.295 458.121 316.535Z" fill="#4FB948"/>
<path opacity="0.7" d="M458.121 316.535C468.062 228.84 419.879 112.269 369.935 64.1395C279.76 -22.7507 204.837 -5.94862 146.562 25.1779C88.2995 56.3044 79.9691 160.21 39.7391 207.221C-0.490905 254.231 -23.3806 317.465 37.6628 380.423C98.7061 443.368 147.959 411.386 211.77 407.399C275.595 403.412 360.22 434.841 405.999 407.512C437.974 388.421 453.717 355.295 458.121 316.535Z" fill="white"/>
<path d="M229.627 143.748C221.611 139.371 217.962 143.019 215.042 139.371C212.123 135.724 223.058 126.254 201.188 116.772C201.188 116.772 199.728 96.3602 169.829 95.6308C139.93 94.9013 147.946 116.042 139.93 121.136C131.915 126.242 129.725 118.218 121.697 123.324C113.681 128.43 117.318 138.629 110.761 140.088C104.193 141.547 95.4471 133.523 87.4313 138.629C79.4155 143.735 79.4155 148.099 75.7663 148.099C72.117 148.099 64.8311 145.182 60.452 148.099C56.0603 151.042 50.9639 154.689 50.9639 154.689H235.466C235.453 154.689 237.643 148.125 229.627 143.748Z" fill="white"/>
<path d="M348.492 85.5697C345.233 83.7964 343.761 85.2678 342.578 83.7964C341.395 82.3124 345.837 78.4766 336.953 74.6282C336.953 74.6282 336.362 66.353 324.231 66.0511C312.1 65.7493 315.347 74.339 312.1 76.4015C308.841 78.4766 307.96 75.2193 304.701 77.2944C301.442 79.3695 302.927 83.5071 300.259 84.0982C297.591 84.6893 294.043 81.432 290.784 83.5071C287.525 85.5822 287.525 87.3555 286.052 87.3555C284.567 87.3555 281.61 86.1733 279.836 87.3555C278.062 88.5377 275.985 90.0217 275.985 90.0217H350.858C350.858 90.0091 351.739 87.3429 348.492 85.5697Z" fill="white"/>
<path d="M243.217 239.115C239.958 237.341 238.486 238.813 237.303 237.341C236.12 235.857 240.562 232.022 231.678 228.173C231.678 228.173 231.086 219.885 218.956 219.596C206.825 219.294 210.072 227.884 206.825 229.946C203.566 232.022 202.685 228.764 199.426 230.839C196.167 232.915 197.652 237.052 194.984 237.643C192.316 238.234 188.768 234.977 185.508 237.052C182.249 239.127 182.249 240.901 180.777 240.901C179.292 240.901 176.335 239.718 174.561 240.901C172.786 242.083 170.71 243.567 170.71 243.567H245.583C245.595 243.542 246.476 240.888 243.217 239.115Z" fill="white"/>
<path d="M470 257.715H1.8877V261.979H470V257.715Z" fill="#263238"/>
<path d="M360.938 260.23V56.4931" stroke="#263238" stroke-miterlimit="10" stroke-linecap="round" stroke-linejoin="round"/>
<path d="M149.532 260.23V25.4798" stroke="#263238" stroke-miterlimit="10" stroke-linecap="round" stroke-linejoin="round"/>
<path d="M14.5723 144.276H453.101" stroke="#263238" stroke-miterlimit="10" stroke-linecap="round" stroke-linejoin="round"/>
<path d="M248.037 49.8025H227.11V37.0375C227.11 34.736 228.985 32.8621 231.288 32.8621H243.872C246.175 32.8621 248.05 34.7234 248.05 37.0375V49.8025H248.037Z" fill="#263238"/>
<path d="M237.303 75.1564C242.689 75.1564 247.055 70.7927 247.055 65.4097C247.055 60.0268 242.689 55.6631 237.303 55.6631C231.917 55.6631 227.551 60.0268 227.551 65.4097C227.551 70.7927 231.917 75.1564 237.303 75.1564Z" fill="white"/>
<path d="M279.043 65.8625H196.104L227.211 48.9347H247.874L279.043 65.8625Z" fill="#263238"/>
<path d="M239.329 1.30795H235.818V35.1887H239.329V1.30795Z" fill="#263238"/>
<path d="M376.554 176.006C377.862 176.585 381.084 176.509 381.084 176.509C381.121 176.509 380.392 174.409 380.329 174.283C379.624 172.812 377.397 170.372 375.585 170.624C374.276 170.8 373.546 172.108 373.848 173.34C374.15 174.585 375.446 175.528 376.554 176.006Z" fill="#263238"/>
<path d="M418.646 165.078C416.821 164.876 414.669 167.379 414.002 168.863C413.939 168.989 413.272 171.114 413.31 171.114C413.31 171.114 413.335 171.114 413.348 171.114C413.008 171.504 412.643 171.932 412.253 172.397C411.536 173.277 410.743 174.271 409.95 175.403C409.158 176.535 408.327 177.792 407.559 179.201C406.804 180.609 406.075 182.131 405.521 183.791C405.508 183.804 405.508 183.829 405.508 183.854C405.521 183.313 405.496 181.817 405.483 181.704C405.269 180.081 403.91 177.075 402.111 176.748C400.815 176.509 399.72 177.528 399.607 178.786C399.506 180.069 400.437 181.364 401.343 182.169C402.375 183.087 405.219 183.967 405.445 184.043C404.942 185.627 404.539 187.3 404.237 189.01C404.061 189.991 403.923 190.985 403.784 191.978C403.772 191.513 403.772 191.098 403.759 191.048C403.545 189.425 402.186 186.42 400.387 186.093C399.091 185.854 397.996 186.872 397.883 188.13C397.782 189.413 398.713 190.708 399.619 191.513C400.538 192.343 402.954 193.148 403.596 193.349C403.545 193.727 403.495 194.116 403.457 194.494C403.243 196.33 403.029 198.166 402.765 199.952C402.677 200.581 402.564 201.197 402.45 201.826C402.438 201.411 402.438 201.071 402.425 201.021C402.211 199.398 400.852 196.393 399.053 196.066C397.757 195.827 396.662 196.845 396.549 198.103C396.448 199.386 397.379 200.681 398.285 201.486C399.166 202.278 401.393 203.033 402.148 203.285C402.01 203.913 401.884 204.542 401.721 205.146C401.607 205.561 401.519 205.963 401.381 206.366C401.255 206.768 401.117 207.171 400.991 207.573C400.714 208.328 400.437 209.107 400.148 209.837C399.946 210.34 399.758 210.83 399.556 211.308C399.657 210.679 399.82 209.447 399.82 209.346C399.846 208.265 399.456 206.492 398.688 205.259C398.688 205.096 398.688 204.945 398.663 204.781C398.461 203.536 397.291 202.605 396.02 202.945C394.246 203.41 393.126 206.517 393.05 208.152C393.05 208.252 393.113 209.296 393.164 209.963C393.076 209.573 392.988 209.208 392.899 208.806C392.711 208.026 392.509 207.246 392.283 206.416C392.157 206.014 392.044 205.611 391.918 205.209C391.805 204.806 391.628 204.391 391.49 203.976C391.138 203.02 390.735 202.065 390.32 201.121C390.999 200.958 393.428 200.342 394.397 199.6C395.366 198.858 396.398 197.638 396.385 196.355C396.373 195.085 395.353 193.991 394.045 194.142C392.22 194.343 390.647 197.235 390.32 198.833C390.295 198.933 390.194 200.103 390.144 200.757C389.879 200.191 389.628 199.625 389.351 199.046C388.533 197.411 387.665 195.776 386.796 194.142C386.532 193.638 386.268 193.135 386.016 192.645C386.255 192.595 389.162 191.916 390.244 191.085C391.213 190.343 392.245 189.124 392.233 187.841C392.22 186.571 391.201 185.476 389.892 185.627C388.067 185.829 386.494 188.721 386.167 190.318C386.142 190.444 385.991 192.129 385.966 192.557C385.387 191.45 384.833 190.356 384.317 189.237C383.613 187.702 383.009 186.168 382.531 184.621C382.644 184.596 385.664 183.904 386.784 183.049C387.753 182.307 388.785 181.087 388.772 179.804C388.759 178.534 387.74 177.44 386.431 177.591C384.607 177.792 383.034 180.685 382.707 182.282C382.682 182.408 382.518 184.231 382.505 184.558C382.48 184.47 382.442 184.37 382.405 184.282C381.914 182.634 381.65 180.974 381.473 179.415C381.373 178.509 381.323 177.629 381.297 176.786C381.876 176.711 384.506 176.371 385.601 175.705C386.645 175.076 387.803 173.982 387.929 172.699C388.055 171.441 387.161 170.246 385.853 170.234C384.028 170.234 382.14 172.938 381.624 174.485C381.599 174.573 381.411 175.453 381.285 176.107C381.285 175.717 381.26 175.327 381.272 174.963C381.272 173.579 381.36 172.309 381.448 171.19C381.499 170.548 381.562 169.982 381.624 169.442C382.153 169.077 384.267 167.58 384.921 166.511C385.551 165.467 386.079 163.971 385.601 162.763C385.135 161.581 383.789 160.94 382.619 161.544C380.995 162.386 380.567 165.656 380.832 167.266C380.857 167.404 381.474 169.542 381.499 169.517C381.499 169.517 381.524 169.504 381.536 169.492C381.461 170.007 381.398 170.561 381.335 171.165C381.222 172.284 381.109 173.554 381.071 174.937C381.033 176.321 381.033 177.83 381.171 179.427C381.31 181.024 381.549 182.684 382.002 184.382C382.002 184.407 382.015 184.42 382.015 184.445C381.725 183.992 380.882 182.76 380.807 182.672C379.737 181.439 376.943 179.679 375.257 180.396C374.049 180.911 373.684 182.357 374.301 183.477C374.917 184.609 376.415 185.162 377.623 185.338C378.982 185.539 381.851 184.709 382.078 184.634C382.531 186.244 383.122 187.841 383.814 189.438C384.204 190.356 384.632 191.262 385.072 192.167C384.808 191.79 384.569 191.45 384.531 191.4C383.462 190.167 380.668 188.407 378.982 189.124C377.774 189.639 377.409 191.085 378.026 192.205C378.642 193.337 380.14 193.89 381.348 194.066C382.568 194.242 385.035 193.588 385.676 193.4C385.853 193.739 386.016 194.091 386.192 194.431C387.023 196.078 387.853 197.726 388.634 199.361C388.91 199.939 389.15 200.518 389.401 201.096C389.175 200.757 388.973 200.467 388.936 200.43C387.866 199.197 385.072 197.437 383.386 198.153C382.178 198.669 381.813 200.115 382.43 201.235C383.046 202.367 384.544 202.92 385.752 203.096C386.922 203.272 389.2 202.681 389.967 202.467C390.207 203.071 390.446 203.662 390.647 204.253C390.773 204.655 390.924 205.045 391.037 205.46C391.15 205.875 391.264 206.278 391.377 206.68C391.566 207.46 391.767 208.265 391.931 209.032C392.044 209.56 392.157 210.076 392.258 210.591C391.993 210.013 391.452 208.894 391.402 208.806C390.534 207.422 388.042 205.259 386.268 205.712C384.984 206.039 384.418 207.422 384.858 208.604C385.299 209.812 386.696 210.591 387.853 210.956C389.137 211.346 391.981 210.994 392.333 210.944C392.509 211.799 392.66 212.616 392.799 213.409C393.277 216.125 393.579 218.401 393.755 219.999C393.793 220.288 393.818 220.539 393.843 220.778H388.332L390.345 260.004H399.732L401.746 220.778H396.612C396.649 220.703 396.687 220.627 396.725 220.539C397.43 219.068 398.411 216.968 399.456 214.39C399.795 213.572 400.135 212.704 400.475 211.799C400.815 211.874 403.633 212.44 404.955 212.151C406.15 211.887 407.585 211.208 408.126 210.038C408.642 208.881 408.176 207.46 406.93 207.045C405.194 206.466 402.551 208.428 401.582 209.749C401.519 209.824 401.003 210.742 400.676 211.321C400.815 210.956 400.953 210.591 401.091 210.214C401.368 209.46 401.62 208.705 401.897 207.888C402.023 207.485 402.136 207.083 402.262 206.68C402.388 206.278 402.476 205.838 402.589 205.41C402.828 204.416 403.017 203.41 403.18 202.379C403.847 202.618 406.2 203.435 407.421 203.36C408.642 203.272 410.164 202.832 410.869 201.75C411.561 200.694 411.309 199.222 410.139 198.606C408.516 197.764 405.596 199.31 404.439 200.467C404.363 200.543 403.633 201.461 403.231 201.977C403.331 201.36 403.432 200.744 403.507 200.115C403.734 198.304 403.91 196.456 404.086 194.619C404.137 194.054 404.2 193.5 404.263 192.934C404.502 193.022 407.283 194.054 408.654 193.965C409.875 193.877 411.397 193.437 412.102 192.356C412.794 191.299 412.543 189.828 411.372 189.212C409.749 188.369 406.83 189.916 405.672 191.073C405.584 191.161 404.527 192.481 404.275 192.834C404.401 191.601 404.552 190.369 404.741 189.161C405.005 187.501 405.345 185.879 405.798 184.332C405.911 184.37 408.805 185.464 410.215 185.376C411.435 185.288 412.958 184.848 413.663 183.766C414.355 182.71 414.103 181.238 412.933 180.622C411.309 179.779 408.39 181.326 407.232 182.483C407.144 182.571 405.999 184.005 405.81 184.269C405.835 184.181 405.861 184.08 405.886 183.992C406.389 182.345 407.081 180.823 407.799 179.427C408.214 178.61 408.654 177.855 409.107 177.138C409.623 177.402 412.014 178.559 413.285 178.61C414.506 178.66 416.066 178.383 416.896 177.39C417.702 176.409 417.614 174.925 416.519 174.195C414.996 173.189 411.926 174.397 410.642 175.415C410.567 175.466 409.925 176.107 409.472 176.585C409.673 176.258 409.887 175.918 410.089 175.617C410.856 174.46 411.624 173.453 412.316 172.573C412.719 172.07 413.084 171.63 413.436 171.215C414.078 171.202 416.67 171.127 417.803 170.599C418.91 170.083 420.168 169.115 420.433 167.844C420.709 166.511 419.954 165.228 418.646 165.078ZM398.499 213.949C397.404 216.477 396.385 218.54 395.655 219.973C395.504 220.263 395.378 220.514 395.253 220.753H395.127C395.089 220.476 395.051 220.162 395.001 219.823C394.774 218.213 394.435 215.911 393.881 213.182C393.717 212.314 393.516 211.396 393.302 210.453C393.516 210.365 394.724 209.875 395.806 209.271C396.737 210.29 399.141 211.472 399.456 211.623C399.141 212.44 398.814 213.22 398.499 213.949Z" fill="#263238"/>
<path d="M409.057 176.723C409.082 176.736 409.636 174.585 409.661 174.447C409.888 172.825 409.372 169.567 407.723 168.775C406.54 168.196 405.207 168.888 404.779 170.083C404.338 171.29 404.892 172.787 405.559 173.806C406.327 175 409.057 176.711 409.057 176.723Z" fill="#263238"/>
<path d="M140.685 211.258L130.53 241.165L120.652 308.75L83.9834 399.929H95.4975L148.84 312.875L165.261 259.124L188.302 315.315L192.367 400.608H204.522L212.01 309.895L197.098 239.706L193.914 224.803L140.685 211.258Z" fill="#263238" stroke="#263238" stroke-miterlimit="10" stroke-linecap="round" stroke-linejoin="round"/>
<path d="M207.203 131.7C207.203 131.7 188.655 128.606 171.793 132.266C154.93 135.913 132.494 143.081 116.047 154.727C111.492 157.947 106.798 162.952 106.798 162.952L119.092 172.171C119.092 172.171 138.974 166.763 145.53 166.725C150.451 166.687 156.906 165.706 156.906 165.706L140.698 211.271C140.698 211.271 139.855 222.225 151.659 227.004C163.462 231.783 185.421 234.411 194.229 227.645C198.86 224.086 220.995 166.826 220.995 166.826C220.995 166.826 227.488 200.48 229.451 205.536C231.414 210.591 235.353 214.805 235.353 214.805L247.722 205.536C247.722 205.536 240.952 172.447 238.423 161.481C235.881 150.527 226.318 133.385 207.203 131.7Z" fill="#00BD58" stroke="#263238" stroke-miterlimit="10" stroke-linecap="round" stroke-linejoin="round"/>
<path d="M176.285 163.166L156.894 165.694L172.069 169.618" stroke="#263238" stroke-miterlimit="10" stroke-linecap="round" stroke-linejoin="round"/>
<path d="M175.73 135.347C175.73 135.347 182.475 146.578 176.297 158.098" stroke="#263238" stroke-miterlimit="10" stroke-linecap="round" stroke-linejoin="round"/>
<path d="M220.981 166.813L233.905 164.851" stroke="#263238" stroke-miterlimit="10" stroke-linecap="round" stroke-linejoin="round"/>
<path d="M221.548 167.932L238.687 170.46" stroke="#263238" stroke-miterlimit="10" stroke-linecap="round" stroke-linejoin="round"/>
<path d="M205.806 128.329C205.806 128.329 196.809 131.134 194.569 133.951C192.316 136.756 192.316 163.443 192.316 163.443L203.843 160.915L213.683 168.498C213.683 168.498 213.117 152.489 211.431 141.535C209.732 130.581 205.806 128.329 205.806 128.329Z" fill="#0A8B44" stroke="#263238" stroke-miterlimit="10" stroke-linecap="round" stroke-linejoin="round"/>
<path d="M210.022 121.312C210.022 121.312 202.71 131.7 201.024 133.951C199.338 136.202 200.458 148.275 201.301 152.489C202.144 156.702 203.83 160.915 203.83 160.915L215.357 148.841C215.357 148.841 210.865 143.509 211.708 136.768C212.551 130.027 216.2 122.72 215.923 120.758C215.646 118.784 210.022 121.312 210.022 121.312Z" fill="white" stroke="#263238" stroke-miterlimit="10" stroke-linecap="round" stroke-linejoin="round"/>
<path d="M209.732 126.078C209.732 126.078 204.674 138.441 205.794 142.931C206.914 147.42 218.717 157.821 224.342 156.136C229.967 154.45 230.81 144.062 230.81 144.062C230.81 144.062 233.339 145.182 234.182 144.628C235.026 144.062 235.302 137.045 235.302 137.045C235.302 137.045 237.832 134.24 238.952 132.555C240.072 130.87 240.915 128.908 240.915 128.908C240.915 128.908 250.189 128.631 249.346 120.205C248.503 111.779 232.76 99.6929 221.523 99.6929C210.286 99.6929 206.071 112.609 206.071 116.545C206.083 120.469 209.732 126.078 209.732 126.078Z" fill="white" stroke="#263238" stroke-miterlimit="10" stroke-linecap="round" stroke-linejoin="round"/>
<path d="M230.659 135.058C230.659 135.058 227.903 131.901 223.952 131.901L230.659 135.058Z" fill="white"/>
<path d="M230.659 135.058C230.659 135.058 227.903 131.901 223.952 131.901" stroke="#263238" stroke-miterlimit="10" stroke-linecap="round" stroke-linejoin="round"/>
<path d="M228.218 136.517L227.224 138.214C227.224 138.214 224.858 138.831 223.952 137.397" fill="white"/>
<path d="M228.218 136.517L227.224 138.214C227.224 138.214 224.858 138.831 223.952 137.397" stroke="#263238" stroke-miterlimit="10" stroke-linecap="round" stroke-linejoin="round"/>
<path d="M249.371 120.18C248.528 111.754 232.786 99.6678 221.549 99.6678C210.311 99.6678 206.096 112.584 206.096 116.52C206.096 120.457 209.745 126.066 209.745 126.066C209.745 126.066 204.686 138.428 205.806 142.918C206.926 147.408 218.73 157.808 224.355 156.123C228.797 154.79 230.244 148.062 230.659 145.27C226.658 140.956 220.68 145.534 217.32 146.578C213.671 147.697 210.009 142.641 210.009 139.837C210.009 137.032 213.659 129.449 214.502 128.04C215.345 126.632 219.837 127.763 222.367 127.474C224.896 127.197 221.247 122.984 221.8 120.457C222.366 117.929 230.798 126.632 234.17 128.606C237.542 130.568 240.915 128.883 240.915 128.883C240.915 128.883 250.214 128.606 249.371 120.18ZM224.921 147.71C229.137 147.144 229.137 148.829 229.137 148.829C227.601 152.375 226.884 151.633 225.487 151.08C224.078 150.527 220.705 148.275 224.921 147.71Z" fill="#263238" stroke="#263238" stroke-miterlimit="10" stroke-linecap="round" stroke-linejoin="round"/>
<path d="M210.865 128.606C210.865 128.606 211.708 122.984 208.336 122.431C204.963 121.865 204.687 126.644 204.687 129.738C204.687 132.832 208.336 132.832 210.022 132.266" fill="white"/>
<path d="M210.865 128.606C210.865 128.606 211.708 122.984 208.336 122.431C204.963 121.865 204.687 126.644 204.687 129.738C204.687 132.832 208.336 132.832 210.022 132.266" stroke="#263238" stroke-miterlimit="10" stroke-linecap="round" stroke-linejoin="round"/>
<path d="M208.739 112.886C208.021 113.351 207.43 113.917 207.015 114.533" stroke="white" stroke-width="0.5" stroke-miterlimit="10" stroke-linecap="round" stroke-linejoin="round"/>
<path d="M231.364 123.5C231.364 123.5 225.726 121.45 220.605 115.564C217.597 112.106 214.149 111.301 211.406 111.842" stroke="white" stroke-width="0.5" stroke-miterlimit="10" stroke-linecap="round" stroke-linejoin="round"/>
<path d="M219.837 125.034C219.837 125.034 217.27 116.331 206.775 119.149" stroke="white" stroke-width="0.5" stroke-miterlimit="10" stroke-linecap="round" stroke-linejoin="round"/>
<path d="M104.394 176.987C104.394 176.987 108.132 171.039 112.901 172.724C117.683 174.409 122.175 178.622 122.175 178.622L126.39 171.881C126.39 171.881 127.234 164.864 119.646 161.204C112.058 157.557 107.842 160.638 107.842 160.638C104.96 161.179 101.311 175.365 104.394 176.987Z" fill="#0A8B44" stroke="#263238" stroke-miterlimit="10" stroke-linecap="round" stroke-linejoin="round"/>
<path d="M248.83 199.914C248.83 199.914 241.519 201.876 236.46 205.536C231.402 209.183 230.559 213.962 230.559 213.962C230.559 213.962 237.027 220.98 238.423 220.98C239.82 220.98 250.504 209.183 251.636 208.064C252.769 206.932 248.83 199.914 248.83 199.914Z" fill="#0A8B44" stroke="#263238" stroke-miterlimit="10" stroke-linecap="round" stroke-linejoin="round"/>
<path d="M298.297 231.657C298.297 231.657 298.02 235.593 296.887 236.436C295.767 237.279 290.709 236.436 290.709 236.436C290.709 236.436 287.336 231.657 288.746 229.695C290.155 227.733 292.684 228.286 294.371 228.852C296.044 229.406 298.297 231.657 298.297 231.657Z" fill="white" stroke="#263238" stroke-miterlimit="10" stroke-linecap="round" stroke-linejoin="round"/>
<path d="M251.636 208.051L281.711 223.495L292.671 224.903C292.671 224.903 306.161 231.644 306.161 232.764C306.161 233.883 304.752 234.449 303.632 234.172C302.512 233.895 294.358 230.525 292.671 230.525C290.985 230.525 289.576 231.091 289.865 232.487C290.142 233.895 294.081 239.794 291.828 239.794C289.576 239.794 287.336 234.172 286.203 233.619C285.083 233.053 281.145 228.84 281.145 228.84C281.145 228.84 255.285 223.507 249.384 222.665C243.482 221.822 240.109 219.294 240.109 219.294L251.636 208.051Z" fill="white" stroke="#263238" stroke-miterlimit="10" stroke-linecap="round" stroke-linejoin="round"/>
<path d="M95.4979 399.929L99.0968 405.098C100.607 407.261 102.62 409.021 104.961 410.229L111.945 413.826C112.423 414.077 112.725 414.568 112.725 415.108C112.725 415.939 112.033 416.592 111.202 416.555C104.634 416.215 78.9001 414.92 77.994 414.92C76.9622 414.92 76.6224 413.549 76.9622 409.424C77.3019 405.299 83.9587 399.941 83.9587 399.941H95.4979V399.929Z" fill="white" stroke="#263238" stroke-miterlimit="10" stroke-linecap="round" stroke-linejoin="round"/>
<path d="M204.473 399.929L208.071 405.098C209.582 407.261 211.595 409.021 213.935 410.229L220.919 413.826C221.398 414.077 221.7 414.568 221.7 415.108C221.7 415.939 221.007 416.592 220.177 416.555C213.608 416.215 187.875 414.92 186.969 414.92C185.937 414.92 185.597 413.549 185.937 409.424C186.277 405.299 192.933 399.941 192.933 399.941H204.473V399.929Z" fill="white" stroke="#263238" stroke-miterlimit="10" stroke-linecap="round" stroke-linejoin="round"/>
<path d="M110.334 222.803C110.334 222.803 106.572 228.815 107.591 233.77C108.623 238.725 117.859 260.318 124.705 280.126C131.55 299.947 130.179 321.528 130.179 327.904C130.179 334.28 129.839 338.87 134.633 341.348C139.428 343.826 146.953 342.404 149.017 337.814C151.068 333.211 152.439 303.845 148.677 286.15C144.914 268.455 131.563 237.316 128.14 230.236C124.705 223.155 122.994 213.245 110.334 222.803Z" fill="white"/>
<mask id="mask0_363_8777" style="mask-type:luminance" maskUnits="userSpaceOnUse" x="107" y="218" width="45" height="125">
<path d="M110.334 222.803C110.334 222.803 106.572 228.815 107.591 233.77C108.623 238.725 117.859 260.318 124.705 280.126C131.55 299.947 130.179 321.528 130.179 327.904C130.179 334.28 129.839 338.87 134.633 341.348C139.428 343.826 146.953 342.404 149.017 337.814C151.068 333.211 152.439 303.845 148.677 286.15C144.914 268.455 131.563 237.316 128.14 230.236C124.705 223.155 122.994 213.245 110.334 222.803Z" fill="white"/>
</mask>
<g mask="url(#mask0_363_8777)">
<path opacity="0.25" d="M110.334 222.803C110.334 222.803 106.572 228.815 107.591 233.77C108.623 238.725 117.859 260.318 124.705 280.126C131.55 299.947 130.179 321.528 130.179 327.904C130.179 334.28 129.839 338.87 134.633 341.348C139.428 343.826 146.953 342.404 149.017 337.814C151.068 333.211 152.439 303.845 148.677 286.15C144.914 268.455 131.563 237.316 128.14 230.236C124.705 223.155 122.994 213.245 110.334 222.803Z" fill="black"/>
</g>
<mask id="mask1_363_8777" style="mask-type:luminance" maskUnits="userSpaceOnUse" x="107" y="218" width="45" height="125">
<path d="M110.334 222.803C110.334 222.803 106.572 228.815 107.591 233.77C108.623 238.725 117.859 260.318 124.705 280.126C131.55 299.947 130.179 321.528 130.179 327.904C130.179 334.28 129.839 338.87 134.633 341.348C139.428 343.826 146.953 342.404 149.017 337.814C151.068 333.211 152.439 303.845 148.677 286.15C144.914 268.455 131.563 237.316 128.14 230.236C124.705 223.155 122.994 213.245 110.334 222.803Z" fill="white"/>
</mask>
<g mask="url(#mask1_363_8777)">
<path opacity="0.25" d="M105.301 226.576C105.301 226.576 101.539 232.588 102.558 237.543C103.59 242.498 112.826 264.091 119.672 283.899C126.517 303.72 125.146 325.301 125.146 331.677C125.146 338.053 124.806 342.643 129.6 345.121C134.395 347.599 141.92 346.177 143.983 341.587C146.035 336.984 147.406 307.618 143.644 289.923C139.881 272.228 126.53 241.089 123.107 234.009C119.672 226.928 117.96 217.018 105.301 226.576Z" fill="black"/>
</g>
<path d="M110.334 222.803C110.334 222.803 106.572 228.815 107.591 233.77C108.623 238.725 117.859 260.318 124.705 280.126C131.55 299.947 130.179 321.528 130.179 327.904C130.179 334.28 129.839 338.87 134.633 341.348C139.428 343.826 146.953 342.404 149.017 337.814C151.068 333.211 152.439 303.845 148.677 286.15C144.914 268.455 131.563 237.316 128.14 230.236C124.705 223.155 122.994 213.245 110.334 222.803Z" stroke="#263238" stroke-miterlimit="10" stroke-linecap="round" stroke-linejoin="round"/>
<path d="M105.036 173.001C105.036 173.001 104.055 182.119 107.817 192.406C110.019 198.418 121.76 217.383 121.76 217.383C121.76 217.383 111.92 221.03 109.113 223.558C106.307 226.086 102.935 234.235 104.621 234.512C106.307 234.788 112.486 227.771 113.895 227.205C115.305 226.639 123.446 226.086 123.446 226.086C123.446 226.086 121.76 228.4 120.464 230.512C119.633 231.858 118.954 233.128 118.954 233.669C118.954 235.078 120.917 234.788 122.049 232.55C123.169 230.299 126.542 230.588 127.674 225.532C128.794 220.476 127.108 214.855 127.108 214.855L122.188 178.622C122.175 178.622 117.079 168.423 105.036 173.001Z" fill="white" stroke="#263238" stroke-miterlimit="10" stroke-linecap="round" stroke-linejoin="round"/>
<path d="M104.621 234.512C104.621 234.512 108.522 226.123 112.813 224.702" stroke="#263238" stroke-miterlimit="10" stroke-linecap="round" stroke-linejoin="round"/>
<path d="M105.653 229.695C105.653 229.695 108.875 225.054 112.084 222.904" stroke="#263238" stroke-miterlimit="10" stroke-linecap="round" stroke-linejoin="round"/>
<path d="M182.866 337.223H178.273V381.454H182.866V337.223Z" fill="white" stroke="#263238" stroke-miterlimit="10" stroke-linecap="round" stroke-linejoin="round"/>
<path d="M186.403 383.265V375.807H174.75V383.328L128.103 401.237V410.065H131.274V403.362L180.74 392.911L228.898 403.362V410.065H231.993V401.237L186.403 383.265Z" fill="white" stroke="#263238" stroke-miterlimit="10" stroke-linecap="round" stroke-linejoin="round"/>
<path d="M192.053 337.223H169.088V351.346H192.053V337.223Z" fill="white" stroke="#263238" stroke-miterlimit="10" stroke-linecap="round" stroke-linejoin="round"/>
<path d="M123.145 415.36C125.876 415.36 128.09 413.147 128.09 410.417C128.09 407.688 125.876 405.475 123.145 405.475C120.413 405.475 118.199 407.688 118.199 410.417C118.199 413.147 120.413 415.36 123.145 415.36Z" fill="#263238" stroke="#263238" stroke-miterlimit="10" stroke-linecap="round" stroke-linejoin="round"/>
<path d="M125.271 410.417C125.271 409.248 124.327 408.305 123.157 408.305C121.987 408.305 121.03 409.248 121.03 410.417C121.03 411.587 121.974 412.53 123.157 412.53C124.315 412.543 125.271 411.587 125.271 410.417Z" fill="white" stroke="#263238" stroke-miterlimit="10" stroke-linecap="round" stroke-linejoin="round"/>
<path d="M237.291 415.36C240.022 415.36 242.236 413.147 242.236 410.417C242.236 407.688 240.022 405.475 237.291 405.475C234.56 405.475 232.346 407.688 232.346 410.417C232.346 413.147 234.56 415.36 237.291 415.36Z" fill="#263238" stroke="#263238" stroke-miterlimit="10" stroke-linecap="round" stroke-linejoin="round"/>
<path d="M237.291 412.53C238.458 412.53 239.405 411.584 239.405 410.417C239.405 409.251 238.458 408.305 237.291 408.305C236.123 408.305 235.177 409.251 235.177 410.417C235.177 411.584 236.123 412.53 237.291 412.53Z" fill="white" stroke="#263238" stroke-miterlimit="10" stroke-linecap="round" stroke-linejoin="round"/>
<path d="M182.69 411.134H178.815L176.864 384.636H184.641L182.69 411.134Z" fill="white" stroke="#263238" stroke-miterlimit="10" stroke-linecap="round" stroke-linejoin="round"/>
<path d="M182.527 405.475H178.639V416.429H182.527V405.475Z" fill="#263238" stroke="#263238" stroke-miterlimit="10" stroke-linecap="round" stroke-linejoin="round"/>
<path d="M195.211 261.652C195.211 261.652 226.255 256.772 229.187 256.281C232.119 255.791 237.744 259.702 240.437 261.652C243.13 263.601 255.349 270.933 253.877 271.423C252.404 271.914 247.522 269.952 244.338 268.732C241.154 267.512 238.713 266.531 238.713 266.531C238.713 266.531 241.406 270.191 242.627 271.172C243.847 272.153 243.357 272.882 239.934 271.411C236.511 269.939 233.818 267.5 232.598 265.55C231.377 263.601 229.414 260.18 229.414 260.18C229.414 260.18 202.523 270.191 198.131 271.662C193.727 273.134 186.881 273.134 187.133 268.48C187.384 263.84 195.211 261.652 195.211 261.652Z" fill="white" stroke="#263238" stroke-miterlimit="10" stroke-linecap="round" stroke-linejoin="round"/>
<path d="M240.437 261.652C237.744 259.702 232.132 255.791 229.187 256.281C227.627 256.546 218.189 258.03 209.645 259.375L210.727 267.11C219.498 263.878 229.426 260.18 229.426 260.18C229.426 260.18 231.377 263.601 232.61 265.55C233.83 267.5 236.523 269.952 239.946 271.411C243.369 272.882 243.86 272.14 242.639 271.172C241.418 270.191 238.725 266.531 238.725 266.531C238.725 266.531 241.167 267.512 244.35 268.732C247.534 269.952 252.416 271.914 253.889 271.423C255.348 270.933 243.117 263.601 240.437 261.652Z" fill="white" stroke="#263238" stroke-miterlimit="10" stroke-linecap="round" stroke-linejoin="round"/>
<path d="M242.148 264.33L253.876 271.423" stroke="#263238" stroke-miterlimit="10" stroke-linecap="round" stroke-linejoin="round"/>
<path d="M219.472 184.672C219.472 184.672 226.318 180.27 225.097 175.39C223.876 170.511 203.591 163.178 193.814 165.379C184.036 167.58 180.853 177.591 178.172 184.923C175.48 192.255 164.481 223.771 164.481 223.771C164.481 223.771 172.548 232.814 182.816 228.173C193.084 223.533 202.371 198.367 207.014 193.236C211.645 188.092 219.472 184.672 219.472 184.672Z" fill="#263238" stroke="#263238" stroke-miterlimit="10" stroke-linecap="round" stroke-linejoin="round"/>
<path d="M212.4 168.825C212.4 168.825 216.754 171.894 218.038 174.711C219.321 177.528 217.786 179.062 217.786 179.062" stroke="white" stroke-width="0.5" stroke-miterlimit="10" stroke-linecap="round" stroke-linejoin="round"/>
<path d="M215.735 171.642C215.735 171.642 208.046 180.094 197.539 184.697C187.032 189.312 179.859 193.148 176.524 196.984" stroke="white" stroke-width="0.5" stroke-miterlimit="10" stroke-linecap="round" stroke-linejoin="round"/>
<path d="M173.089 203.461C172.548 204.681 172.07 205.938 171.667 207.234" stroke="white" stroke-width="0.5" stroke-miterlimit="10" stroke-linecap="round" stroke-linejoin="round"/>
<path d="M203.001 172.737C201.289 174.409 198.924 176.472 195.753 178.811C188.63 184.043 179.796 190.985 174.574 200.48" stroke="white" stroke-width="0.5" stroke-miterlimit="10" stroke-linecap="round" stroke-linejoin="round"/>
<path d="M207.027 168.058C207.027 168.058 206.625 168.75 205.593 169.97" stroke="white" stroke-width="0.5" stroke-miterlimit="10" stroke-linecap="round" stroke-linejoin="round"/>
<path d="M181.822 210.327C181.822 210.327 164.218 217.898 159.083 220.59C153.949 223.281 152.968 228.651 152.968 233.292C152.968 237.932 159.562 272.87 159.562 272.87H188.403C188.403 272.87 193.538 262.607 197.199 259.187C200.861 255.766 203.793 248.924 202.333 244.284C200.861 239.643 199.402 237.203 199.402 232.562C199.402 227.922 198.42 222.061 194.758 218.389C191.109 214.716 189.158 208.856 181.822 210.327Z" fill="white" stroke="#263238" stroke-miterlimit="10" stroke-linecap="round" stroke-linejoin="round"/>
<path d="M242.564 343.272C243.18 346.454 245.747 350.428 247.006 353.459C249.56 359.609 254.153 369.343 256.934 375.405C260.898 384.032 263.868 395.2 263.339 395.955C262.811 396.722 261.489 400.52 261.489 402.042C261.489 403.563 262.546 416.504 262.546 416.504H264.396L265.718 408.896C265.718 408.896 269.946 409.147 271.267 410.417C272.588 411.688 274.174 414.48 276.552 415.75C278.93 417.02 289.765 417.523 289.765 417.523C289.765 417.523 291.615 416.504 289.236 414.48C286.858 412.455 283.158 409.663 281.044 406.619C278.93 403.576 272.852 396.219 272.852 396.219C272.852 396.219 259.111 320.874 258.054 317.579C256.997 314.284 253.562 307.178 250.391 306.411C247.22 305.644 236.385 304.638 236.385 304.638L235.856 317.579C235.856 317.579 238.361 317.076 241.267 322.911C243.029 326.47 240.726 333.865 242.564 343.272Z" fill="white" stroke="#263238" stroke-miterlimit="10" stroke-linecap="round" stroke-linejoin="round"/>
<path d="M284.555 410.468C278.276 412.555 271.77 406.318 268.888 403.06C266.397 400.231 263.138 398.898 262.257 398.583C261.842 399.853 261.489 401.262 261.489 402.054C261.489 403.576 262.546 416.517 262.546 416.517H264.396L265.717 408.908C265.717 408.908 269.945 409.16 271.267 410.43C272.588 411.7 274.174 414.492 276.552 415.762C278.93 417.033 289.765 417.536 289.765 417.536C289.765 417.536 291.615 416.517 289.236 414.492C287.915 413.348 286.191 411.977 284.555 410.468Z" fill="#263238" stroke="#263238" stroke-miterlimit="10" stroke-linecap="round" stroke-linejoin="round"/>
<path d="M250.466 301.443C250.466 301.443 261.993 304.663 261.276 307.14C260.558 309.618 243.269 361.344 236.788 373.481C230.307 385.617 227.904 395.276 228.621 398.244C229.338 401.212 235.341 410.87 237.266 412.367C239.191 413.851 243.986 416.328 243.269 416.58C242.551 416.831 232.22 417.07 227.904 416.58C226.721 416.442 219.976 408.405 218.781 407.915C217.585 407.424 217.585 407.424 217.585 407.424V416.341H214.943L213.986 402.721C213.986 402.721 215.182 398.508 217.585 395.791C219.989 393.062 222.392 390.094 224.544 382.661C226.708 375.229 234.624 337.122 235.832 329.451C237.027 321.767 240.148 315.089 240.148 315.089L250.466 301.443Z" fill="white" stroke="#263238" stroke-miterlimit="10" stroke-linecap="round" stroke-linejoin="round"/>
<path d="M237.253 412.367C236.838 412.052 236.234 411.336 235.542 410.417C233.705 410.43 231.553 410.229 230.055 409.399C226.935 407.663 224.053 403.702 221.41 400.734C220.089 399.25 218.114 398.067 216.452 397.263C214.791 399.803 213.961 402.708 213.961 402.708L214.917 416.328H217.56V407.412C217.56 407.412 217.56 407.412 218.755 407.902C219.951 408.393 226.696 416.442 227.878 416.567C232.195 417.058 242.526 416.819 243.243 416.567C243.986 416.328 239.179 413.851 237.253 412.367Z" fill="#263238" stroke="#263238" stroke-miterlimit="10" stroke-linecap="round" stroke-linejoin="round"/>
<path d="M159.574 272.87C159.574 272.87 157.372 299.984 157.133 308.775C156.894 317.566 164.217 326.118 174.246 327.099C184.263 328.08 243.91 320.019 243.91 320.019L253.687 302.185C253.687 302.185 224.845 294.853 215.068 292.174C205.29 289.483 196.004 287.773 196.004 287.773L188.428 272.87H159.574Z" fill="#263238" stroke="#263238" stroke-miterlimit="10" stroke-linecap="round" stroke-linejoin="round"/>
<path d="M193.072 224.74L197.954 233.292C197.954 233.292 196.243 224.249 195.261 221.08C194.28 217.898 191.6 218.879 191.6 220.59C191.6 222.3 192.606 225.57 192.606 225.57" fill="#0F4C81"/>
<path d="M193.072 224.74L197.954 233.292C197.954 233.292 196.243 224.249 195.261 221.08C194.28 217.898 191.6 218.879 191.6 220.59C191.6 222.3 192.606 225.57 192.606 225.57" stroke="#263238" stroke-miterlimit="10" stroke-linecap="round" stroke-linejoin="round"/>
<path d="M193.739 194.946L185.308 208.428L192.619 225.57C192.619 225.57 197.111 215.182 199.364 212.654C201.616 210.126 205.542 206.479 205.542 206.479C205.542 206.479 198.52 198.053 197.954 195.802C197.388 193.538 194.292 192.695 193.739 194.946Z" fill="white" stroke="#263238" stroke-miterlimit="10" stroke-linecap="round" stroke-linejoin="round"/>
<path d="M183.785 205.926L179.381 210.327L187.208 232.801L193.072 224.74L183.785 205.926Z" fill="#0F4C81" stroke="#263238" stroke-miterlimit="10" stroke-linecap="round" stroke-linejoin="round"/>
<path d="M156.643 241.844C156.643 241.844 169.352 270.43 172.045 276.29C174.738 282.151 180.602 283.371 185.975 283.371C191.348 283.371 225.085 282.39 225.085 282.39C225.085 282.39 243.659 283.119 246.842 282.39C250.026 281.661 255.148 277.259 256.129 277.259C257.111 277.259 262.484 282.151 263.704 282.151C264.925 282.151 265.655 281.422 264.686 279.711C263.704 278.001 259.803 270.43 257.111 270.178C254.418 269.939 242.929 277.51 242.929 277.51C242.929 277.51 223.865 274.819 213.835 272.14C203.819 269.449 188.165 263.349 188.165 263.349C188.165 263.349 181.81 251.628 179.117 244.535C176.424 237.455 175.933 227.922 171.051 224.01C166.168 220.099 160.053 224.501 160.053 224.501" fill="white"/>
<path d="M156.643 241.844C156.643 241.844 169.352 270.43 172.045 276.29C174.738 282.151 180.602 283.371 185.975 283.371C191.348 283.371 225.085 282.39 225.085 282.39C225.085 282.39 243.659 283.119 246.842 282.39C250.026 281.661 255.148 277.259 256.129 277.259C257.111 277.259 262.484 282.151 263.704 282.151C264.925 282.151 265.655 281.422 264.686 279.711C263.704 278.001 259.803 270.43 257.111 270.178C254.418 269.939 242.929 277.51 242.929 277.51C242.929 277.51 223.865 274.819 213.835 272.14C203.819 269.449 188.165 263.349 188.165 263.349C188.165 263.349 181.81 251.628 179.117 244.535C176.424 237.455 175.933 227.922 171.051 224.01C166.168 220.099 160.053 224.501 160.053 224.501" stroke="#263238" stroke-miterlimit="10" stroke-linecap="round" stroke-linejoin="round"/>
<path d="M257.111 270.178C254.418 269.939 242.929 277.51 242.929 277.51C242.929 277.51 233.378 276.165 224.229 274.417L224.469 282.403C224.846 282.39 225.073 282.39 225.073 282.39C225.073 282.39 243.646 283.119 246.83 282.39C250.013 281.661 255.135 277.259 256.117 277.259C257.098 277.259 262.471 282.138 263.692 282.138C264.912 282.138 265.642 281.409 264.673 279.699C263.717 278.001 259.804 270.417 257.111 270.178Z" fill="white" stroke="#263238" stroke-miterlimit="10" stroke-linecap="round" stroke-linejoin="round"/>
<path d="M256.62 274.58C256.62 274.58 263.214 279.221 264.686 281.422" stroke="#263238" stroke-miterlimit="10" stroke-linecap="round" stroke-linejoin="round"/>
<path d="M257.362 272.379L263.226 277.259" stroke="#263238" stroke-miterlimit="10" stroke-linecap="round" stroke-linejoin="round"/>
<path d="M218.756 178.937C218.756 178.937 220.329 184.621 220.618 187.162C220.895 189.69 218.932 191.098 219.775 192.494C220.618 193.903 222.783 198.292 221.663 198.858C220.543 199.424 218.567 199.424 218.567 199.424C218.567 199.424 213.421 208.994 212.301 210.679C211.181 212.365 203.303 208.428 199.654 206.743C196.005 205.058 195.715 196.908 195.715 196.908L195.438 191.287C195.426 191.299 213.131 184.835 218.756 178.937Z" fill="white" stroke="#263238" stroke-miterlimit="10" stroke-linecap="round" stroke-linejoin="round"/>
<path d="M214.628 188.193C218.265 183.779 218.227 188.658 218.227 188.658L214.628 188.193Z" fill="white"/>
<path d="M214.628 188.193C218.265 183.779 218.227 188.658 218.227 188.658" stroke="#263238" stroke-miterlimit="10" stroke-linecap="round" stroke-linejoin="round"/>
<path d="M216.365 193.45C216.038 194.481 215.446 195.211 215.031 195.072C214.616 194.946 214.553 194.003 214.867 192.972C215.195 191.941 215.786 191.211 216.201 191.35C216.617 191.475 216.692 192.419 216.365 193.45Z" fill="#263238"/>
<path d="M197.389 193.538C197.389 193.538 195.426 186.52 193.173 187.916C190.921 189.325 189.801 194.657 192.053 197.462C194.306 200.266 197.955 198.581 197.955 198.581" fill="white"/>
<path d="M197.389 193.538C197.389 193.538 195.426 186.52 193.173 187.916C190.921 189.325 189.801 194.657 192.053 197.462C194.306 200.266 197.955 198.581 197.955 198.581" stroke="#263238" stroke-miterlimit="10" stroke-linecap="round" stroke-linejoin="round"/>
<path d="M214.074 341.713L150.564 343.712C147.62 343.8 145.153 341.499 145.065 338.544L144.776 329.438C144.688 326.495 146.991 324.03 149.948 323.942L213.458 321.943C216.402 321.855 218.869 324.156 218.957 327.099L219.246 336.204C219.334 339.16 217.019 341.612 214.074 341.713Z" fill="white"/>
<mask id="mask2_363_8777" style="mask-type:luminance" maskUnits="userSpaceOnUse" x="144" y="321" width="76" height="23">
<path d="M214.074 341.713L150.564 343.712C147.62 343.8 145.153 341.499 145.065 338.544L144.776 329.438C144.688 326.495 146.991 324.03 149.948 323.942L213.458 321.943C216.402 321.855 218.869 324.156 218.957 327.099L219.246 336.204C219.334 339.16 217.019 341.612 214.074 341.713Z" fill="white"/>
</mask>
<g mask="url(#mask2_363_8777)">
<path opacity="0.25" d="M214.074 341.713L150.564 343.712C147.62 343.8 145.153 341.499 145.065 338.544L144.776 329.438C144.688 326.495 146.991 324.03 149.948 323.942L213.458 321.943C216.402 321.855 218.869 324.156 218.957 327.099L219.246 336.204C219.334 339.16 217.019 341.612 214.074 341.713Z" fill="black"/>
</g>
<mask id="mask3_363_8777" style="mask-type:luminance" maskUnits="userSpaceOnUse" x="144" y="321" width="76" height="23">
<path d="M214.074 341.713L150.564 343.712C147.62 343.8 145.153 341.499 145.065 338.544L144.776 329.438C144.688 326.495 146.991 324.03 149.948 323.942L213.458 321.943C216.402 321.855 218.869 324.156 218.957 327.099L219.246 336.204C219.334 339.16 217.019 341.612 214.074 341.713Z" fill="white"/>
</mask>
<g mask="url(#mask3_363_8777)">
<path opacity="0.25" d="M214.074 346.97L150.564 348.969C147.62 349.057 145.153 346.756 145.065 343.813L144.776 334.708C144.688 331.765 146.991 329.3 149.948 329.212L213.458 327.212C216.402 327.124 218.869 329.426 218.957 332.381L219.246 341.486C219.334 344.417 217.019 346.882 214.074 346.97Z" fill="black"/>
</g>
<path d="M214.074 341.713L150.564 343.712C147.62 343.8 145.153 341.499 145.065 338.544L144.776 329.438C144.688 326.495 146.991 324.03 149.948 323.942L213.458 321.943C216.402 321.855 218.869 324.156 218.957 327.099L219.246 336.204C219.334 339.16 217.019 341.612 214.074 341.713Z" stroke="#263238" stroke-miterlimit="10" stroke-linecap="round" stroke-linejoin="round"/>
<path d="M194.179 334.481C193.852 334.481 193.512 334.418 193.198 334.28C191.889 333.739 191.272 332.243 191.813 330.935C195.941 320.999 200.672 303.267 195.828 297.972C194.695 297.192 187.875 295.545 151.118 298.915C149.86 299.029 148.941 299.117 148.438 299.154C145.871 299.355 143.681 302.625 143.115 303.745C142.486 305.002 140.938 305.518 139.679 304.889C138.408 304.26 137.905 302.713 138.534 301.456C138.887 300.751 142.184 294.488 148.047 294.048C148.538 294.011 149.432 293.935 150.652 293.822C189.825 290.225 197.325 292.036 199.615 294.526C208.248 303.933 197.778 329.979 196.558 332.909C196.142 333.89 195.186 334.481 194.179 334.481Z" fill="white" stroke="#263238" stroke-miterlimit="10" stroke-linecap="round" stroke-linejoin="round"/>
<path d="M418.483 284.968H216.767V299.091H418.483V284.968Z" fill="#FFC444" stroke="black" stroke-miterlimit="10" stroke-linecap="round" stroke-linejoin="round"/>
<path d="M298.787 279.271H254.87V288.829H298.787V279.271Z" fill="white" stroke="black" stroke-miterlimit="10" stroke-linecap="round" stroke-linejoin="round"/>
<path d="M383.953 270.254H340.036V277.334H383.953V270.254Z" fill="white" stroke="black" stroke-miterlimit="10" stroke-linecap="round" stroke-linejoin="round"/>
<path d="M385.728 263.173H341.811V270.254H385.728V263.173Z" fill="white" stroke="black" stroke-miterlimit="10" stroke-linecap="round" stroke-linejoin="round"/>
<path d="M386.608 277.146H342.691V288.829H386.608V277.146Z" fill="white" stroke="black" stroke-miterlimit="10" stroke-linecap="round" stroke-linejoin="round"/>
<path d="M418.483 285.295H216.767V292.023H418.483V285.295Z" fill="black" stroke="black" stroke-miterlimit="10" stroke-linecap="round" stroke-linejoin="round"/>
<path d="M217.874 416.555C217.106 416.555 216.477 415.939 216.477 415.159L215.559 285.283H220.202L219.283 415.159C219.271 415.939 218.642 416.555 217.874 416.555Z" fill="#FFC444" stroke="black" stroke-miterlimit="10" stroke-linecap="round" stroke-linejoin="round"/>
<path d="M417.262 416.555C416.494 416.555 415.865 415.939 415.865 415.159L414.946 285.283H419.59L418.671 415.159C418.658 415.939 418.042 416.555 417.262 416.555Z" fill="#FFC444" stroke="black" stroke-miterlimit="10" stroke-linecap="round" stroke-linejoin="round"/>
<path d="M325.829 282.968H304.085C303.216 282.968 302.512 282.264 302.512 281.396C302.512 280.529 303.216 279.824 304.085 279.824H325.829C326.874 279.824 327.88 279.384 328.585 278.604C329.453 277.649 329.755 276.341 329.416 275.108L321.702 247.478C321.463 246.635 321.953 245.78 322.797 245.541C323.627 245.302 324.495 245.793 324.734 246.635L332.448 274.266C333.09 276.555 332.511 278.969 330.913 280.717C329.617 282.151 327.767 282.968 325.829 282.968Z" fill="white" stroke="black" stroke-miterlimit="10" stroke-linecap="round" stroke-linejoin="round"/>
<path d="M323.142 211.144L318.22 210.554L310.592 274.163L315.514 274.753L323.142 211.144Z" fill="white" stroke="black" stroke-miterlimit="10" stroke-linecap="round" stroke-linejoin="round"/>
<path d="M323.135 211.157C323.135 211.157 331.881 242.347 315.51 274.769L323.135 211.157Z" fill="black" stroke="black" stroke-miterlimit="10" stroke-linecap="round" stroke-linejoin="round"/>
<path d="M281.585 279.296C280.755 279.296 279.849 279.07 278.968 278.617C277.068 277.624 274.941 275.335 275.218 272.103C275.331 270.707 275.935 269.587 276.954 268.858C279.131 267.298 282.428 268.065 282.793 268.154C283.473 268.317 283.875 269.009 283.712 269.675C283.548 270.354 282.856 270.757 282.189 270.593C281.535 270.43 279.458 270.153 278.414 270.908C278.15 271.096 277.797 271.449 277.722 272.316C277.558 274.316 278.917 275.762 280.125 276.391C281.031 276.869 281.937 276.932 282.39 276.555C282.932 276.114 283.724 276.177 284.165 276.718C284.605 277.246 284.542 278.051 284.001 278.491C283.347 279.02 282.504 279.296 281.585 279.296Z" fill="white" stroke="black" stroke-miterlimit="10" stroke-linecap="round" stroke-linejoin="round"/>
<path d="M293.112 281.447C291.476 282.805 286.254 282.805 284.605 281.447C281.686 279.019 281.774 266.531 281.774 266.531H295.943C295.943 266.531 296.044 279.032 293.112 281.447Z" fill="white" stroke="black" stroke-miterlimit="10" stroke-linecap="round" stroke-linejoin="round"/>
<path d="M423.441 282.201H211.809V288.062H423.441V282.201Z" fill="#FFC444" stroke="black" stroke-miterlimit="10" stroke-linecap="round" stroke-linejoin="round"/>
<path d="M464.992 415.574H0V423.987H464.992V415.574Z" fill="#263238"/>
</g>
<defs>
<clipPath id="clip0_363_8777">
<rect width="470" height="424" fill="white"/>
</clipPath>
</defs>
</svg>
